# xmcd CD database file
#
# Track frame offsets:
#	150
#	21133
#	44493
#	65967
#	89408
#	107362
#	127895
#	142883
#	158174
#	176369
#	201033
#	224487
#	246964
#	264913
#	282804
#	314837
#
# Disc length: 4392 seconds
#
# Revision: 0
# Processed by: cddbd v1.4PL0 Copyright (c) Steve Scherf et al.
# Submitted via: CDex 1.50
#
DISCID=e8112610
DTITLE=Popa Chubby - One Million Broken Guitar
DYEAR=1997
DGENRE=Blues
TTITLE0=Nobody Knows You When You're Down And Out
TTITLE1=What's Your Point
TTITLE2=Dance The Night Away
TTITLE3=Real Thing
TTITLE4=Laya What Y Atrying To Do
TTITLE5=Long Way Home
TTITLE6=Protected
TTITLE7=It All Turns To Gold
TTITLE8=What's Your Problem
TTITLE9=Naughty Little People
TTITLE10=Nobody Loves Me Like I Love Myself
TTITLE11=Oh Roger
TTITLE12=Bonus Track 1
TTITLE13=Bonus Track 2
TTITLE14=Bonus Track 3
TTITLE15=Bonus Track 4
EXTD=YEAR: 1997
EXTT0=
EXTT1=
EXTT2=
EXTT3=
EXTT4=
EXTT5=
EXTT6=
EXTT7=
EXTT8=
EXTT9=
EXTT10=
EXTT11=
EXTT12=
EXTT13=
EXTT14=
EXTT15=
PLAYORDER=
